<svg width="1200" height="800" viewBox="0 0 1200 800" xmlns="http://www.w3.org/2000/svg">
  <rect width="1200" height="800" fill="#1e293b" />
  
  <!-- Dashboard Header -->
  <rect x="0" y="0" width="1200" height="60" fill="#334155" />
  <text x="20" y="38" fill="white" font-family="sans-serif" font-size="18" font-weight="bold">ปลูกทันราคา - Crop Advisory</text>
  <circle cx="1150" cy="30" r="15" fill="#22c55e" />
  <path d="M1145,30 L1155,30 M1150,25 L1150,35" stroke="white" stroke-width="2" />
  
  <!-- Traffic Light Advisory -->
  <g transform="translate(20, 100)">
    <rect width="560" height="280" rx="10" fill="#334155" />
    <text x="20" y="30" fill="#94a3b8" font-family="sans-serif" font-size="14">Traffic Light Advisory</text>
    
    <!-- Green Light -->
    <circle cx="280" cy="120" r="60" fill="#22c55e" />
    <text x="280" y="200" text-anchor="middle" fill="white" font-family="sans-serif" font-size="28" font-weight="bold">GREEN</text>
    <text x="280" y="240" text-anchor="middle" fill="white" font-family="sans-serif" font-size="14">ดีมาก - ราคาคาดว่าจะขึ้น</text>
    
    <!-- Yellow Light -->
    <circle cx="280" cy="340" r="60" fill="#fbbf24" />
    <text x="280" y="420" text-anchor="middle" fill="white" font-family="sans-serif" font-size="28" font-weight="bold">YELLOW</text>
    <text x="280" y="460" text-anchor="middle" fill="white" font-family="sans-serif" font-size="14">ระวัร - ติดตามตลาด</text>
    
    <!-- Red Light -->
    <circle cx="280" cy="560" r="60" fill="#dc2626" />
    <text x="280" y="640" text-anchor="middle" fill="white" font-family="sans-serif" font-size="28" font-weight="bold">RED</text>
    <text x="280" y="680" text-anchor="middle" fill="white" font-family="sans-serif" font-size="14">ไม่แนะนำ - ราคาจะลด</text>
  </g>
  
  <!-- Price Prediction Chart -->
  <g transform="translate(600, 100)">
    <rect width="560" height="280" rx="10" fill="#334155" />
    <text x="20" y="30" fill="#94a3b8" font-family="sans-serif" font-size="14">Price Prediction - ข้าวนาปี</text>
    
    <!-- Chart Area -->
    <rect x="20" y="60" width="520" height="180" fill="#1e293b" />
    
    <!-- Grid Lines -->
    <path d="M20,60 L540,60 M20,100 L540,100 M20,140 L540,140 M20,180 L540,180 M20,220 L540,220" stroke="#475569" stroke-width="1" />
    <path d="M20,60 L20,240 M100,60 L100,240 M180,60 L180,240 M260,60 L260,240 M340,60 L340,240 M420,60 L420,240 M500,60 L500,240" stroke="#475569" stroke-width="1" />
    
    <!-- Price Line -->
    <path d="M20,200 Q80,180 140,190 T220,160 Q300,150 380,170 T460,140 Q500,160 540,130" 
          stroke="#22c55e" stroke-width="3" fill="none" />
    
    <!-- Labels -->
    <text x="20" y="55" fill="#94a3b8" font-family="sans-serif" font-size="10">15</text>
    <text x="535" y="55" text-anchor="end" fill="#94a3b8" font-family="sans-serif" font-size="10">฿/กก.</text>
    
    <text x="20" y="255" fill="#22c55e" font-family="sans-serif" font-size="12">คาดว่าจะขึ้น: ฿18.50/กก.</text>
  </g>
  
  <!-- Crop Recommendations -->
  <g transform="translate(20, 400)">
    <rect width="560" height="120" rx="10" fill="#334155" />
    <text x="20" y="30" fill="#94a3b8" font-family="sans-serif" font-size="14">แนะนำพืชสำหรับฤดูกาลนี้</text>
    <rect x="20" y="50" width="520" height="50" rx="5" fill="#22c55e" fill-opacity="0.1" />
    <text x="30" y="80" fill="white" font-family="sans-serif" font-size="12">🌾 ข้าวนาปี - ราคาเพิ่มขึ้น</text>
  </g>
  
  <g transform="translate(600, 400)">
    <rect width="560" height="120" rx="10" fill="#334155" />
    <text x="20" y="30" fill="#94a3b8" font-family="sans-serif" font-size="14">ต้นทุนการเก็บ</text>
    <rect x="20" y="50" width="520" height="50" rx="5" fill="#22c55e" fill-opacity="0.1" />
    <text x="30" y="80" fill="white" font-family="sans-serif" font-size="12">📊 วิเคราะห์ด้วย AI - แม่นยำ 85%</text>
  </g>
  
  <!-- Status Footer -->
  <rect x="0" y="740" width="1200" height="60" fill="#334155" />
  <text x="20" y="775" fill="#94a3b8" font-family="sans-serif" font-size="12">จังหวัด: ขอนแก่น | พืช: ข้าวนาปี | Last Update: 1 hour ago</text>
  <text x="1100" y="775" fill="#22c55e" font-family="sans-serif" font-size="12">v1.0.0</text>
</svg>
