<svg width="1200" height="800" viewBox="0 0 1200 800" xmlns="http://www.w3.org/2000/svg">
  <rect width="1200" height="800" fill="#1e293b" />
  
  <!-- Dashboard Header -->
  <rect x="0" y="0" width="1200" height="60" fill="#334155" />
  <text x="20" y="38" fill="white" font-family="sans-serif" font-size="18" font-weight="bold">SmartFarm Dashboard</text>
  <circle cx="1150" cy="30" r="15" fill="#22c55e" />
  <path d="M1145,30 L1155,30 M1150,25 L1150,35" stroke="white" stroke-width="2" />
  
  <!-- Sensor Cards -->
  <g transform="translate(20, 100)">
    <rect width="270" height="150" rx="10" fill="#334155" />
    <text x="20" y="30" fill="#94a3b8" font-family="sans-serif" font-size="14">Temperature</text>
    <text x="20" y="70" fill="white" font-family="sans-serif" font-size="32" font-weight="bold">28.5°C</text>
    <text x="20" y="110" fill="#22c55e" font-family="sans-serif" font-size="12">Normal Range</text>
    <path d="M20,130 L250,130" stroke="#22c55e" stroke-width="3" />
  </g>
  
  <g transform="translate(310, 100)">
    <rect width="270" height="150" rx="10" fill="#334155" />
    <text x="20" y="30" fill="#94a3b8" font-family="sans-serif" font-size="14">Humidity</text>
    <text x="20" y="70" fill="white" font-family="sans-serif" font-size="32" font-weight="bold">65%</text>
    <text x="20" y="110" fill="#22c55e" font-family="sans-serif" font-size="12">Optimal</text>
    <path d="M20,130 L250,130" stroke="#22c55e" stroke-width="3" />
  </g>
  
  <g transform="translate(600, 100)">
    <rect width="270" height="150" rx="10" fill="#334155" />
    <text x="20" y="30" fill="#94a3b8" font-family="sans-serif" font-size="14">Soil Moisture</text>
    <text x="20" y="70" fill="white" font-family="sans-serif" font-size="32" font-weight="bold">42%</text>
    <text x="20" y="110" fill="#fbbf24" font-family="sans-serif" font-size="12">Low - Add Water</text>
    <path d="M20,130 L250,130" stroke="#fbbf24" stroke-width="3" />
  </g>
  
  <g transform="translate(890, 100)">
    <rect width="270" height="150" rx="10" fill="#334155" />
    <text x="20" y="30" fill="#94a3b8" font-family="sans-serif" font-size="14">Light Level</text>
    <text x="20" y="70" fill="white" font-family="sans-serif" font-size="32" font-weight="bold">850 lux</text>
    <text x="20" y="110" fill="#22c55e" font-family="sans-serif" font-size="12">Good</text>
    <path d="M20,130 L250,130" stroke="#22c55e" stroke-width="3" />
  </g>
  
  <!-- Chart Section -->
  <g transform="translate(20, 280)">
    <rect width="560" height="280" rx="10" fill="#334155" />
    <text x="20" y="30" fill="#94a3b8" font-family="sans-serif" font-size="14">24h Sensor Readings</text>
    <!-- Chart Line -->
    <path d="M20,200 L80,180 L140,210 L200,160 L260,190 L320,170 L380,200 L440,185 L500,175 L540,195" 
          stroke="#22c55e" stroke-width="3" fill="none" />
    <!-- Grid -->
    <path d="M20,250 L540,250" stroke="#475569" stroke-width="1" stroke-dasharray="5,5" />
    <path d="M20,200 L20,250 M80,180 L80,250 M140,210 L140,250 M200,160 L200,250 M260,190 L260,250 M320,170 L320,250 M380,200 L380,250 M440,185 L440,250 M500,175 L500,250 M540,195 L540,250" 
          stroke="#475569" stroke-width="1" />
  </g>
  
  <!-- Controls Section -->
  <g transform="translate(600, 280)">
    <rect width="560" height="280" rx="10" fill="#334155" />
    <text x="20" y="30" fill="#94a3b8" font-family="sans-serif" font-size="14">Toggle Controls</text>
    
    <!-- Irrigation Control -->
    <rect x="20" y="60" width="250" height="60" rx="5" fill="#1e293b" />
    <text x="40" y="85" fill="white" font-family="sans-serif" font-size="14">Irrigation</text>
    <circle cx="250" cy="90" r="20" fill="#22c55e" />
    <path d="M245,90 L255,90 M250,85 L250,95" stroke="white" stroke-width="2" />
    
    <!-- Ventilation Control -->
    <rect x="20" y="140" width="250" height="60" rx="5" fill="#1e293b" />
    <text x="40" y="165" fill="white" font-family="sans-serif" font-size="14">Ventilation</text>
    <circle cx="250" cy="170" r="20" fill="#22c55e" />
    <path d="M245,170 L255,170 M250,165 L250,175" stroke="white" stroke-width="2" />
    
    <!-- Lighting Control -->
    <rect x="20" y="220" width="250" height="60" rx="5" fill="#1e293b" />
    <text x="40" y="245" fill="white" font-family="sans-serif" font-size="14">Lighting</text>
    <circle cx="250" cy="250" r="20" fill="#22c55e" />
    <path d="M245,250 L255,250 M250,245 L250,255" stroke="white" stroke-width="2" />
  </g>
  
  <!-- Status Footer -->
  <rect x="0" y="740" width="1200" height="60" fill="#334155" />
  <text x="20" y="775" fill="#94a3b8" font-family="sans-serif" font-size="12">System Status: Online | Last Sync: 2 min ago</text>
  <text x="1100" y="775" fill="#22c55e" font-family="sans-serif" font-size="12">v2.1.0</text>
</svg>
